<svg id="Layer_1" data-name="Layer 1" xmlns="http://www.w3.org/2000/svg" xmlns:xlink="http://www.w3.org/1999/xlink" viewBox="0 0 164.37 67.5"><defs><style>.cls-1{fill:url(#linear-gradient);}.cls-2{fill:#fefcf9;}.cls-3{fill:#fff;}</style><linearGradient id="linear-gradient" y1="33.75" x2="67.5" y2="33.75" gradientUnits="userSpaceOnUse"><stop offset="0" stop-color="#00f260"/><stop offset="1" stop-color="#0575e6"/></linearGradient></defs><title>GwangjuCCLogo</title><rect class="cls-1" width="67.5" height="67.5" rx="16.37" ry="16.37"/><path class="cls-2" d="M60,41.25c-16.07,5.47-48.53,11.1-46.61-6.52l-2.1,2.09S-8.78,64.71,43.45,48.3a93.06,93.06,0,0,0,16.55-7Z"/><path class="cls-3" d="M50.31,31.31c-.08.71-.13,1.42-.26,2.11a16.32,16.32,0,0,1-9.33,12.19,15.46,15.46,0,0,1-7.66,1.54,16.27,16.27,0,0,1-11.74-5.62A15.76,15.76,0,0,1,17.54,34,16.14,16.14,0,0,1,20.1,21.27a16.36,16.36,0,0,1,8.32-6.34,14.93,14.93,0,0,1,4.23-.85L33,14h1.61c.6.07,1.2.11,1.8.21a16.7,16.7,0,0,1,13.74,14c.09.6.13,1.21.19,1.82ZM48.14,25.2A15.39,15.39,0,1,0,21.88,40.41,1.53,1.53,0,0,1,23.05,39a1.8,1.8,0,0,1,1.8.6,1,1,0,0,1-.34-.08,1.75,1.75,0,0,0-2.25.85.48.48,0,0,0,.09.63,15.35,15.35,0,0,0,3.17,2.63.69.69,0,0,0,.45.09,1.73,1.73,0,0,1,2,1.08.2.2,0,0,0,.08.13l1.57.57a4.63,4.63,0,0,1,0-.53,1.92,1.92,0,0,1,2.94-1.06,1.16,1.16,0,0,1,.25,1.52c-1.41-.56-2.17-.51-2.67.18A15.42,15.42,0,0,0,39.28,45a2.37,2.37,0,0,1,1.58-2.55c.9-.24,1.37.22,1.29,1,0,0,0,0,.06.16a4.9,4.9,0,0,0,.67-.72,3.5,3.5,0,0,1,1.36-1.34,1.66,1.66,0,0,0,.89-1.61c0-.3-.06-.6-.1-.9a3,3,0,0,1,.76-2.63A3.46,3.46,0,0,0,46.73,33a2.57,2.57,0,0,1,.85-2.54c.42-.38.89-.71,1.32-1.08a.49.49,0,0,0,.16-.34c-.14-.84-.3-1.67-.47-2.51-.07-.32-.32-.39-.57-.17a3.51,3.51,0,0,0-.36.4C47.38,26,47.55,25.44,48.14,25.2Zm-.94,8.17a6.46,6.46,0,0,0,.47.83.44.44,0,0,0,.66.11,1.71,1.71,0,0,0,.5-.7,8.85,8.85,0,0,0,.24-1.53A1.83,1.83,0,0,0,48.75,31c-.11.53-.18,1-.32,1.51S47.78,33.22,47.2,33.37Zm-2.05,5.5c.22.3.38.54.56.77s.33.27.51,0c.45-.72.88-1.45,1.32-2.18.24-.37.05-.67-.09-1C47,37.57,46.71,38.75,45.15,38.87Zm-3.58,5a1.74,1.74,0,0,0-1.78.9Z"/><path class="cls-3" d="M37.73,44.79c-1.28-.64-2.22-.14-3,.88a1.65,1.65,0,0,1,0-1.41,2.13,2.13,0,0,1,2-1.16,1,1,0,0,1,1.09,1.36C37.77,44.55,37.75,44.65,37.73,44.79Z"/><path class="cls-3" d="M40.46,39.52l-.6-.26a1.26,1.26,0,0,0-1.33.22c-.34.29-.65.6-1,.91-.09.08-.13.2-.23.27a1.55,1.55,0,0,1,.24-1.56,2,2,0,0,1,1.53-1A1.2,1.2,0,0,1,40.46,39.52Z"/><path class="cls-3" d="M40,35.06a1.91,1.91,0,0,1,.91-2.32,1.31,1.31,0,0,1,1.89,1.14,2.78,2.78,0,0,1,0,.29c-.51-.33-1-.66-1.62-.38A2.86,2.86,0,0,0,40,35.06Z"/><path class="cls-3" d="M44.58,38.53C43.1,38,42.59,39,42.05,40a1.9,1.9,0,0,1,.05-1.45,2.08,2.08,0,0,1,1-1.22A.88.88,0,0,1,44.5,38C44.53,38.14,44.54,38.3,44.58,38.53Z"/><path class="cls-3" d="M46.23,33.18c-.19-.09-.36-.19-.54-.26a.88.88,0,0,0-1.15.28,3.48,3.48,0,0,0-.34.51c-.1.15-.18.33-.28.52a1.87,1.87,0,0,1,1-2.39.61.61,0,0,1,.76.16C45.92,32.35,46.28,32.65,46.23,33.18Z"/><path class="cls-3" d="M46.85,28c-1.12-.83-1.12-.83-2,.17a2.05,2.05,0,0,1,.09-1.32.75.75,0,0,1,1.28-.28A2.3,2.3,0,0,1,46.85,28Z"/><path class="cls-3" d="M35.3,39.33c-1.77-.53-2.53.43-3,1.86A1.76,1.76,0,0,1,33,39.05,1.68,1.68,0,0,1,35.3,39.33Z"/><path class="cls-3" d="M30,39.6a2.57,2.57,0,0,0-1.93.1,2.07,2.07,0,0,0-1,1.66,1.55,1.55,0,0,1,.59-2.08A1.68,1.68,0,0,1,30,39.6Z"/><path class="cls-3" d="M35.09,36a1.91,1.91,0,0,1,.72-2.33,1.56,1.56,0,0,1,2.08.28,2.39,2.39,0,0,0-1.93.28A2.66,2.66,0,0,0,35.09,36Z"/><path class="cls-3" d="M43.38,27.68c-1.38.1-1.45.16-1.91,1.71a1.54,1.54,0,0,1,1-2.15A1,1,0,0,1,43.38,27.68Z"/><path class="cls-3" d="M44.87,23.07a6.93,6.93,0,0,1-.12-.91c0-.52.31-.76.81-.62l.42.14c-.31.15-.66.22-.83.43A2.61,2.61,0,0,0,44.87,23.07Z"/><path class="cls-3" d="M87.45,14.22V11.54H93.6V17a12.15,12.15,0,0,1-3.12,1.64,10.62,10.62,0,0,1-3.22.44,7.84,7.84,0,0,1-3.74-.78A5.37,5.37,0,0,1,81.28,16a7.7,7.7,0,0,1-.8-3.55,7.41,7.41,0,0,1,.87-3.67A5.64,5.64,0,0,1,83.9,6.41a8.23,8.23,0,0,1,3.53-.63,9.82,9.82,0,0,1,3.19.39,4.19,4.19,0,0,1,1.76,1.2,5.49,5.49,0,0,1,1.05,2.06l-3.84.69A2.09,2.09,0,0,0,88.78,9a2.47,2.47,0,0,0-1.44-.39,2.64,2.64,0,0,0-2.09.91,4.39,4.39,0,0,0-.78,2.88,4.48,4.48,0,0,0,.79,3,2.74,2.74,0,0,0,2.19.9,4.18,4.18,0,0,0,1.28-.2,7.34,7.34,0,0,0,1.39-.66V14.22Z"/><path class="cls-3" d="M94.69,9.55h3.45l1.5,5.88,1.89-5.88h3.24l2,5.9,1.51-5.9h3.43l-3.43,9.34h-3.19l-1.89-5.62-1.83,5.62H98.15Z"/><path class="cls-3" d="M115.78,12.58l-3.42-.36a3.87,3.87,0,0,1,.56-1.41,3,3,0,0,1,1-.9,4.49,4.49,0,0,1,1.35-.42,11,11,0,0,1,1.87-.15,14.79,14.79,0,0,1,2.58.18,3.37,3.37,0,0,1,1.63.75,2.76,2.76,0,0,1,.72,1.13,4.14,4.14,0,0,1,.26,1.38V16.9a5.35,5.35,0,0,0,.08,1,4.9,4.9,0,0,0,.37,1h-3.36a4,4,0,0,1-.26-.55c0-.13-.08-.33-.13-.59a4.47,4.47,0,0,1-1.39,1,5.81,5.81,0,0,1-2.21.39,3.7,3.7,0,0,1-2.53-.77,2.47,2.47,0,0,1-.87-1.91,2.53,2.53,0,0,1,.62-1.75,4.22,4.22,0,0,1,2.31-1q2-.4,2.61-.57c.39-.11.82-.25,1.26-.42a1.29,1.29,0,0,0-.27-.93,1.4,1.4,0,0,0-1-.26,2.49,2.49,0,0,0-1.32.28A1.53,1.53,0,0,0,115.78,12.58Zm3.1,1.88c-.49.17-1,.33-1.54.46a3.7,3.7,0,0,0-1.38.58.87.87,0,0,0-.29.65.85.85,0,0,0,.29.69,1.24,1.24,0,0,0,.87.27,2.19,2.19,0,0,0,1.11-.29,1.79,1.79,0,0,0,.73-.71,2.39,2.39,0,0,0,.21-1.08Z"/><path class="cls-3" d="M124.52,9.55h3.34v1.52a4.91,4.91,0,0,1,1.51-1.33,4.06,4.06,0,0,1,1.86-.4,3,3,0,0,1,2.32.89,3.83,3.83,0,0,1,.84,2.73v5.93H130.8V13.76a1.85,1.85,0,0,0-.33-1.25,1.15,1.15,0,0,0-.91-.36,1.29,1.29,0,0,0-1.05.49,2.87,2.87,0,0,0-.41,1.77v4.48h-3.58Z"/><path class="cls-3" d="M143,9.55h3.34v9.23a3.89,3.89,0,0,1-.37,1.68,3.47,3.47,0,0,1-1,1.28,4,4,0,0,1-1.58.72,10.1,10.1,0,0,1-2.18.22,6.42,6.42,0,0,1-3.86-.85,2.74,2.74,0,0,1-1.05-2.26c0-.11,0-.27,0-.47l3.48.39a1.07,1.07,0,0,0,.4.67,1.7,1.7,0,0,0,1,.27,1.49,1.49,0,0,0,1.16-.41,2.13,2.13,0,0,0,.38-1.44V17.17a3.48,3.48,0,0,1-2.84,1.34,3.55,3.55,0,0,1-3-1.63,5.21,5.21,0,0,1-.82-3.07,4.68,4.68,0,0,1,1.06-3.32,3.55,3.55,0,0,1,2.76-1.15,3.93,3.93,0,0,1,1.79.37A4.07,4.07,0,0,1,143,10.93Zm-3.37,4.53a2.22,2.22,0,0,0,.43,1.5,1.47,1.47,0,0,0,1.13.49,1.43,1.43,0,0,0,1.12-.51A2.18,2.18,0,0,0,142.8,14a2.28,2.28,0,0,0-.48-1.56,1.47,1.47,0,0,0-1.16-.54,1.34,1.34,0,0,0-1.09.49A2.62,2.62,0,0,0,139.66,14.08Z"/><path class="cls-3" d="M148.68,9.55h3.58v9.06a8.24,8.24,0,0,1-.25,2.45,2.24,2.24,0,0,1-.92,1.17,3.52,3.52,0,0,1-1.94.45,13.93,13.93,0,0,1-2.57-.31l.53-2.6a3.28,3.28,0,0,0,.64.08.81.81,0,0,0,.69-.31,2.2,2.2,0,0,0,.24-1.24Zm0-3.55h3.58V8.46h-3.58Z"/><path class="cls-3" d="M164.37,18.89H161V17.38a5,5,0,0,1-1.51,1.32,4,4,0,0,1-1.87.4,3.09,3.09,0,0,1-2.32-.88,3.83,3.83,0,0,1-.83-2.72V9.55h3.59v5.14a1.84,1.84,0,0,0,.33,1.24,1.13,1.13,0,0,0,.91.37,1.29,1.29,0,0,0,1-.49,2.86,2.86,0,0,0,.41-1.76V9.55h3.58Z"/><path class="cls-3" d="M89.55,35.21,93,36.27a6.22,6.22,0,0,1-1.11,2.45,4.84,4.84,0,0,1-1.87,1.49,7.1,7.1,0,0,1-2.85.5,8.44,8.44,0,0,1-3.44-.61A5.5,5.5,0,0,1,81.48,38a7.23,7.23,0,0,1-1-3.94,6.7,6.7,0,0,1,1.7-4.91,7.72,7.72,0,0,1,8.64-.73,5.73,5.73,0,0,1,2.07,3l-3.52.78a3.08,3.08,0,0,0-.38-.86,2.38,2.38,0,0,0-.82-.7,2.26,2.26,0,0,0-1.08-.25A2.36,2.36,0,0,0,85,31.45,4.68,4.68,0,0,0,84.5,34a4.8,4.8,0,0,0,.65,2.93,2.57,2.57,0,0,0,3.56.16A4,4,0,0,0,89.55,35.21Z"/><path class="cls-3" d="M94.3,35.85a4.66,4.66,0,0,1,1.44-3.52,6.24,6.24,0,0,1,8.13.24A4.69,4.69,0,0,1,105,35.79a4.64,4.64,0,0,1-1.43,3.53,5.45,5.45,0,0,1-4,1.38A5.56,5.56,0,0,1,96,39.56,4.61,4.61,0,0,1,94.3,35.85Zm3.59,0a2.77,2.77,0,0,0,.5,1.84,1.6,1.6,0,0,0,1.27.6,1.56,1.56,0,0,0,1.27-.59,2.91,2.91,0,0,0,.5-1.89,2.74,2.74,0,0,0-.5-1.8,1.57,1.57,0,0,0-1.24-.6,1.62,1.62,0,0,0-1.3.61A2.78,2.78,0,0,0,97.89,35.84Z"/><path class="cls-3" d="M116.58,40.49h-3.34V39a4.85,4.85,0,0,1-1.51,1.32,4,4,0,0,1-1.87.4,3.07,3.07,0,0,1-2.31-.88,3.84,3.84,0,0,1-.84-2.72v-6h3.59v5.14a1.84,1.84,0,0,0,.33,1.24,1.14,1.14,0,0,0,.91.37,1.29,1.29,0,0,0,1-.49,2.79,2.79,0,0,0,.41-1.76v-4.5h3.58Z"/><path class="cls-3" d="M118.75,31.15h3.33v1.52a5,5,0,0,1,1.51-1.33,4.07,4.07,0,0,1,1.87-.4,3,3,0,0,1,2.32.89,3.82,3.82,0,0,1,.84,2.72v5.94H125V35.36a1.85,1.85,0,0,0-.33-1.25,1.17,1.17,0,0,0-.91-.36,1.3,1.3,0,0,0-1.06.49,2.88,2.88,0,0,0-.4,1.77v4.48h-3.58Z"/><path class="cls-3" d="M135.07,27.6v3.55h2v2.62h-2v3.31a1.7,1.7,0,0,0,.12.79.64.64,0,0,0,.61.3,4.1,4.1,0,0,0,1.11-.23l.26,2.47a11.83,11.83,0,0,1-2.48.29,4.46,4.46,0,0,1-2-.34,2.1,2.1,0,0,1-.93-1,6.2,6.2,0,0,1-.3-2.26V33.77h-1.32V31.15h1.32V29.44Z"/><path class="cls-3" d="M138.78,31.15h3.35v1.53a3.54,3.54,0,0,1,1-1.36,2.08,2.08,0,0,1,1.27-.38,3.91,3.91,0,0,1,1.73.49L145,34a2.93,2.93,0,0,0-1-.26,1.23,1.23,0,0,0-1.09.58,5.9,5.9,0,0,0-.55,3.06v3.13h-3.6Z"/><path class="cls-3" d="M146.75,31.15h3.78l1.92,6.22,1.79-6.22h3.52l-3.7,10a6.07,6.07,0,0,1-1.29,2.3,4.14,4.14,0,0,1-2.84.85,20.73,20.73,0,0,1-2.39-.21l-.28-2.5a5.81,5.81,0,0,0,1.72.25,1.72,1.72,0,0,0,1-.29,2.28,2.28,0,0,0,.66-1Z"/><path class="cls-3" d="M89.55,56.82l3.49,1a6.22,6.22,0,0,1-1.11,2.45,4.84,4.84,0,0,1-1.87,1.49,7.1,7.1,0,0,1-2.85.5,8.28,8.28,0,0,1-3.44-.61,5.5,5.5,0,0,1-2.29-2.15,7.22,7.22,0,0,1-1-3.93,6.71,6.71,0,0,1,1.7-4.92A7.72,7.72,0,0,1,90.85,50a5.73,5.73,0,0,1,2.07,3l-3.52.78a3.08,3.08,0,0,0-.38-.86,2.45,2.45,0,0,0-4,.14,4.68,4.68,0,0,0-.54,2.54,4.86,4.86,0,0,0,.65,2.94,2.58,2.58,0,0,0,3.56.15A4,4,0,0,0,89.55,56.82Z"/><path class="cls-3" d="M94.86,49.2h3.59V62.09H94.86Z"/><path class="cls-3" d="M110.57,62.09h-3.34V60.58a4.85,4.85,0,0,1-1.51,1.32,4,4,0,0,1-1.87.4,3.07,3.07,0,0,1-2.31-.88,3.84,3.84,0,0,1-.84-2.72v-6h3.59v5.14a1.89,1.89,0,0,0,.33,1.25,1.15,1.15,0,0,0,.91.36,1.29,1.29,0,0,0,1-.49,2.84,2.84,0,0,0,.41-1.76v-4.5h3.58Z"/><path class="cls-3" d="M112.76,49.2h3.61v4.47a3.5,3.5,0,0,1,1.22-.85,4,4,0,0,1,1.5-.28,3.63,3.63,0,0,1,2.82,1.23A5,5,0,0,1,123,57.29a6.62,6.62,0,0,1-.51,2.69,3.76,3.76,0,0,1-1.41,1.74,3.6,3.6,0,0,1-2,.58,3.79,3.79,0,0,1-1.72-.4,4.84,4.84,0,0,1-1.29-1.19v1.38h-3.34Zm3.58,8.2a2.71,2.71,0,0,0,.45,1.74,1.45,1.45,0,0,0,1.15.54,1.35,1.35,0,0,0,1.08-.53,2.87,2.87,0,0,0,.43-1.79,2.59,2.59,0,0,0-.42-1.63,1.32,1.32,0,0,0-1-.51,1.5,1.5,0,0,0-1.19.54A2.51,2.51,0,0,0,116.34,57.4Z"/></svg>